<svg xmlns="http://www.w3.org/2000/svg" viewBox="228 178 270 44" fill="#000000" stroke="none">
  <!-- Substrato Wordmark Only -->
  <g transform="translate(0.000000,400.000000) scale(0.100000,-0.100000)">
    <path d="M2372 2104 c-17 -12 -22 -24 -20 -47 3 -34 21 -47 98 -69 36 -10 46 -18 48 -37 8 -54 -80 -71 -124 -24 -29 31 -43 24 -20 -11 10 -15 29 -28 51 -32 70 -13 118 17 113 69 -3 34 -22 47 -98 69 -33 9 -46 19 -48 34 -7 46 76 65 109 26 17 -22 39 -29 39 -14 0 5 -10 18 -23 30 -28 27 -92 30 -125 6z"/>
    <path d="M2650 2025 c0 -88 2 -98 25 -120 18 -19 35 -25 65 -25 30 0 47 6 65 25 23 22 25 32 25 120 0 57 -4 95 -10 95 -6 0 -10 -37 -10 -90 0 -102 -15 -130 -70 -130 -55 0 -70 28 -70 130 0 53 -4 90 -10 90 -6 0 -10 -38 -10 -95z"/>
    <path d="M2970 1999 l0 -121 69 4 c50 2 75 9 90 22 28 25 27 70 0 90 -20 14 -20 16 -5 31 9 9 16 27 16 40 0 37 -35 55 -107 55 l-63 0 0 -121z m138 89 c16 -16 15 -43 -1 -56 -7 -6 -34 -12 -61 -14 l-48 -3 -2 43 -2 42 51 0 c28 0 56 -5 63 -12z m0 -104 c50 -35 10 -84 -69 -84 l-46 0 -2 50 -1 50 48 0 c27 0 57 -7 70 -16z"/>
    <path d="M3292 2097 c-12 -13 -22 -31 -22 -39 0 -24 44 -55 87 -63 40 -7 73 -30 73 -50 0 -22 -37 -45 -73 -45 -28 0 -41 7 -61 33 -23 29 -26 30 -26 10 0 -31 45 -63 90 -63 65 0 109 54 81 98 -5 8 -37 24 -72 36 -51 17 -65 26 -67 45 -5 31 7 41 53 43 28 1 43 -4 56 -20 20 -25 29 -28 29 -9 0 48 -109 66 -148 24z"/>
    <path d="M3550 2110 c0 -5 20 -10 45 -10 l45 0 0 -110 c0 -67 4 -110 10 -110 6 0 10 43 10 110 l0 110 45 0 c25 0 45 5 45 10 0 6 -40 10 -100 10 -60 0 -100 -4 -100 -10z"/>
    <path d="M3870 2000 c0 -73 4 -120 10 -120 6 0 10 23 10 50 l0 50 38 0 c34 0 39 -4 64 -50 16 -28 32 -50 38 -50 15 0 13 7 -16 56 l-26 44 26 21 c32 25 35 70 6 99 -16 16 -33 20 -85 20 l-65 0 0 -120z m134 84 c38 -37 -1 -84 -69 -84 l-45 0 0 50 0 50 49 0 c32 0 55 -6 65 -16z"/>
    <path d="M4195 2012 c-49 -131 -50 -135 -34 -130 7 2 18 20 24 39 11 32 14 34 63 37 l52 3 16 -40 c9 -23 20 -41 25 -41 14 0 12 5 -33 127 -29 75 -48 113 -58 113 -10 0 -28 -36 -55 -108z m77 30 c10 -26 18 -52 18 -58 0 -6 -19 -11 -43 -11 l-43 -1 21 63 c11 35 22 61 25 58 2 -2 12 -25 22 -51z"/>
    <path d="M4420 2110 c0 -5 20 -10 45 -10 l45 0 0 -110 c0 -67 4 -110 10 -110 6 0 10 43 10 110 l0 110 45 0 c25 0 45 5 45 10 0 6 -40 10 -100 10 -60 0 -100 -4 -100 -10z"/>
    <path d="M4754 2105 c-56 -38 -58 -150 -5 -197 17 -15 42 -28 56 -28 69 0 105 45 105 130 0 44 -5 56 -29 81 -33 33 -91 40 -127 14z m115 -31 c24 -31 28 -95 8 -134 -15 -30 -54 -45 -91 -36 -54 13 -73 129 -30 177 27 30 87 26 113 -7z"/>
  </g>
</svg>
