<svg xmlns="http://www.w3.org/2000/svg" viewBox="95 163 128 59" fill="#ffffff" stroke="none">
  <!-- Substrato Logomark — White (Dark Mode) -->
  <g transform="translate(0.000000,400.000000) scale(0.100000,-0.100000)">
    <path d="M1372 2260 l-244 -98 45 -20 c25 -11 56 -23 68 -27 20 -7 13 -11 -45 -35 l-68 -27 58 -23 c33 -13 62 -26 67 -30 4 -3 -22 -17 -58 -31 -59 -22 -83 -39 -54 -39 6 0 117 -44 247 -97 l236 -97 55 20 c110 40 450 179 451 184 0 3 -29 17 -65 30 -36 13 -61 27 -57 30 4 4 30 15 57 25 28 10 53 21 57 24 4 4 -22 18 -59 33 l-66 25 58 22 c32 12 63 25 67 28 10 5 -472 203 -494 203 -7 -1 -123 -45 -256 -100z m489 -7 c120 -49 219 -90 219 -93 -1 -3 -102 -45 -226 -95 l-224 -89 -183 74 c-100 40 -202 82 -227 92 l-45 19 215 89 c118 48 223 88 234 89 10 1 117 -38 237 -86z m-138 -258 c50 20 98 40 105 42 8 4 12 -8 12 -40 l0 -45 -86 -36 c-48 -20 -97 -39 -109 -42 -15 -4 -98 25 -249 87 l-227 93 58 21 57 22 173 -70 173 -70 93 38z m309 82 l58 -24 -87 -35 c-48 -20 -89 -41 -91 -47 -2 -7 8 -6 30 3 29 12 39 11 86 -6 28 -12 52 -23 52 -27 0 -3 -102 -47 -226 -97 l-225 -91 -225 91 c-123 50 -224 93 -224 96 0 3 24 14 53 26 l52 20 172 -69 171 -69 111 43 111 44 0 56 0 56 63 25 c34 15 62 26 62 27 0 0 26 -10 57 -22z"/>
  </g>
</svg>
